<svg width="18" height="18" viewBox="0 0 18 18" fill="none" xmlns="http://www.w3.org/2000/svg">
<path d="M4.72771 14.8446L5.37931 15.2253C6.4781 15.8663 7.72792 16.2027 9.00001 16.2C10.424 16.2 11.8161 15.7777 13.0001 14.9866C14.1841 14.1954 15.107 13.0709 15.6519 11.7553C16.1969 10.4397 16.3395 8.99201 16.0617 7.59534C15.7838 6.19868 15.0981 4.91577 14.0912 3.90883C13.0842 2.90189 11.8013 2.21616 10.4047 1.93834C9.00799 1.66053 7.56032 1.80312 6.24469 2.34807C4.92906 2.89302 3.80458 3.81586 3.01343 4.99989C2.22228 6.18392 1.80001 7.57597 1.80001 8.99999C1.79739 10.2725 2.13416 11.5226 2.77561 12.6216L3.15541 13.2732L2.56771 15.4341L4.72771 14.8446ZM0.00361391 18L1.22041 13.5288C0.418476 12.1544 -0.00277346 10.5912 1.37418e-05 8.99999C1.37418e-05 4.0293 4.02931 0 9.00001 0C13.9707 0 18 4.0293 18 8.99999C18 13.9707 13.9707 18 9.00001 18C7.40949 18.0027 5.84693 17.5818 4.47301 16.7805L0.00361391 18ZM5.75191 4.7772C5.87311 4.7688 5.99401 4.7676 6.11461 4.7736C6.16321 4.7772 6.21181 4.782 6.26041 4.788C6.40351 4.8042 6.56101 4.8915 6.61411 5.0121C6.88231 5.6211 7.14271 6.2331 7.39531 6.8481C7.45111 6.98489 7.41781 7.16039 7.31161 7.33139C7.25761 7.41869 7.17301 7.54109 7.07491 7.66619C6.97321 7.79669 6.75451 8.03609 6.75451 8.03609C6.75451 8.03609 6.66541 8.14229 6.69961 8.27459C6.71221 8.32499 6.75361 8.39789 6.79141 8.45909L6.84451 8.54459C7.07491 8.92889 7.38451 9.31859 7.76251 9.68579C7.87051 9.79019 7.97581 9.89729 8.08921 9.99719C8.51041 10.3689 8.98741 10.6722 9.50221 10.8972L9.50671 10.899C9.58321 10.9323 9.62191 10.9503 9.73351 10.998C9.78931 11.0214 9.84661 11.0412 9.90541 11.0574C9.92701 11.0634 9.94891 11.0667 9.97111 11.0673C10.0224 11.0692 10.0734 11.0586 10.1197 11.0363C10.166 11.0141 10.2061 10.9808 10.2366 10.9395C10.8873 10.1511 10.9476 10.0998 10.9521 10.0998V10.1016C10.9973 10.0593 11.0511 10.0272 11.1098 10.0074C11.1685 9.98772 11.2307 9.98085 11.2923 9.98729C11.3475 9.98969 11.4006 10.0017 11.4516 10.0233C11.9295 10.242 12.7116 10.5831 12.7116 10.5831L13.2354 10.818C13.3236 10.8603 13.4037 10.9602 13.4064 11.0565C13.41 11.1168 13.4154 11.214 13.3947 11.3922C13.3659 11.6253 13.2957 11.9052 13.2255 12.0519C13.1768 12.1517 13.1131 12.2433 13.0365 12.3237C12.9456 12.419 12.8462 12.5057 12.7395 12.5829C12.6651 12.6381 12.6276 12.6651 12.627 12.6639C12.5151 12.7349 12.4001 12.801 12.2823 12.8619C12.0505 12.9847 11.7946 13.0553 11.5326 13.0689C11.3661 13.0779 11.1996 13.0905 11.0322 13.0815C11.025 13.0815 10.521 13.0032 10.521 13.0032C9.24146 12.6666 8.0581 12.0361 7.06501 11.1618C6.86161 10.9827 6.67261 10.7901 6.48001 10.5984C5.68081 9.80189 5.07511 8.94239 4.70701 8.13059C4.52026 7.7321 4.41909 7.29889 4.41001 6.8589C4.40663 6.31237 4.58556 5.78031 4.91851 5.3469C4.98421 5.2623 5.04631 5.1741 5.15341 5.0724C5.26681 4.9644 5.33971 4.9068 5.41801 4.8672C5.52245 4.81589 5.63584 4.78533 5.75191 4.7772Z" fill="white"/>
</svg>
